<svg xmlns="http://www.w3.org/2000/svg" viewBox="0.33 -3.83 100.67 102.20" width="101" height="102">
  <rect x="0.331180637288675" y="-3.8297166539880934" width="100.66619477618019" height="102.20248395692752" fill="#1a1a2e"/>
  <path class="region" d="M 57.22 46.64 L 57.83 45.70 L 58.55 45.96 L 59.27 44.48 L 60.09 43.99 L 59.93 43.27 L 60.29 43.31 L 60.79 41.84 L 62.39 43.30 L 63.27 43.49 L 63.48 42.98 L 64.25 43.37 L 66.27 42.18 L 67.19 43.41 L 69.04 42.48 L 69.37 43.49 L 70.83 44.61 L 71.98 44.02 L 71.90 43.40 L 72.73 42.63 L 73.18 44.29 L 73.70 44.54 L 74.77 43.96 L 77.02 44.28 L 77.69 43.51 L 79.22 44.29 L 79.73 43.34 L 80.95 43.31 L 80.41 46.21 L 81.22 46.34 L 81.06 47.74 L 81.93 47.17 L 82.76 47.75 L 82.06 48.47 L 80.87 48.64 L 80.88 49.68 L 80.27 50.27 L 79.81 49.85 L 79.52 50.13 L 79.94 50.25 L 78.97 50.29 L 79.26 51.16 L 78.48 51.24 L 79.63 51.97 L 79.28 52.67 L 78.07 52.56 L 77.05 51.31 L 76.57 51.69 L 76.70 53.03 L 76.18 53.43 L 75.84 53.13 L 76.22 52.77 L 75.95 51.57 L 76.55 51.04 L 75.95 50.54 L 73.86 50.30 L 72.68 50.94 L 72.28 52.37 L 72.91 53.28 L 72.46 54.15 L 72.74 54.49 L 74.23 55.54 L 74.57 55.32 L 75.34 56.63 L 76.42 57.35 L 78.08 55.93 L 79.16 56.58 L 80.99 54.96 L 81.88 55.12 L 83.19 52.74 L 84.22 53.12 L 84.89 52.87 L 84.47 54.89 L 83.67 55.95 L 84.10 56.12 L 83.90 57.04 L 84.49 57.71 L 84.22 58.54 L 82.49 58.37 L 81.84 60.10 L 80.85 60.54 L 81.05 62.74 L 80.70 63.50 L 81.12 63.46 L 81.22 66.13 L 81.89 67.47 L 81.21 67.50 L 81.11 70.70 L 81.54 71.01 L 81.30 71.77 L 81.69 72.62 L 82.28 73.13 L 82.06 73.45 L 80.96 73.14 L 80.83 74.40 L 81.35 75.11 L 80.90 77.21 L 79.70 77.27 L 79.01 77.80 L 78.70 77.26 L 76.53 76.85 L 76.47 77.77 L 75.40 78.03 L 74.66 79.26 L 72.63 77.92 L 73.09 79.13 L 72.30 79.30 L 72.43 77.97 L 71.66 77.53 L 72.19 76.79 L 71.79 76.50 L 71.98 75.71 L 70.51 75.04 L 70.79 74.63 L 70.28 75.30 L 69.60 75.23 L 70.69 73.97 L 70.77 72.78 L 70.30 73.05 L 70.12 72.47 L 70.40 71.63 L 69.70 72.12 L 68.60 71.40 L 68.51 72.16 L 67.87 72.23 L 67.74 73.63 L 66.35 73.53 L 66.26 71.86 L 65.87 72.03 L 65.51 71.35 L 65.13 71.71 L 64.80 71.03 L 65.51 71.29 L 65.61 70.18 L 64.41 70.33 L 63.31 67.33 L 62.84 66.85 L 61.90 67.34 L 61.55 66.29 L 59.75 66.09 L 58.32 63.86 L 57.38 63.35 L 56.11 58.59 L 57.19 54.46 L 56.79 54.70 L 55.02 52.53 L 57.00 52.12 L 59.69 48.27 L 57.22 46.64 Z" stroke="#4caf50" stroke-width="1" fill="#2a4a2e" />
  <path class="region" d="M 28.16 37.91 L 29.68 38.31 L 29.68 39.10 L 30.31 39.27 L 31.06 38.74 L 31.36 39.00 L 32.50 37.62 L 33.25 38.30 L 34.31 37.93 L 34.05 37.48 L 34.88 36.78 L 35.22 37.23 L 35.82 36.79 L 36.92 36.89 L 37.40 37.55 L 37.71 35.97 L 38.39 35.59 L 38.62 37.92 L 39.21 38.21 L 40.48 37.86 L 40.58 39.14 L 41.78 39.35 L 42.11 39.95 L 41.76 40.98 L 42.47 41.77 L 41.48 42.71 L 41.56 42.23 L 41.02 42.74 L 40.57 42.51 L 40.60 41.87 L 39.81 42.11 L 39.53 42.72 L 39.17 42.31 L 38.78 43.40 L 38.30 42.92 L 37.59 43.24 L 37.02 43.89 L 37.62 44.30 L 36.56 45.46 L 35.98 45.36 L 35.83 46.29 L 34.75 46.42 L 34.90 47.11 L 32.94 45.84 L 32.57 44.67 L 30.67 44.31 L 30.61 43.01 L 27.86 43.72 L 27.38 44.52 L 26.38 44.20 L 25.14 44.87 L 25.06 43.78 L 24.50 43.79 L 24.16 43.02 L 24.68 41.75 L 23.80 41.83 L 23.37 40.56 L 24.77 40.05 L 24.44 39.59 L 24.87 38.44 L 28.16 37.91 Z" stroke="#4caf50" stroke-width="1" fill="#2a4a2e" />
  <path class="region" d="M 8.32 52.31 L 8.30 52.88 L 8.59 52.24 L 9.03 52.74 L 9.54 52.52 L 9.77 53.05 L 11.07 53.06 L 11.54 52.17 L 12.54 51.84 L 13.74 52.96 L 14.88 53.29 L 14.66 53.79 L 15.42 53.91 L 15.23 54.55 L 15.76 55.02 L 17.17 55.78 L 17.48 55.41 L 17.35 56.16 L 18.19 55.87 L 19.60 56.42 L 19.52 54.29 L 19.90 53.88 L 20.20 54.29 L 20.47 53.34 L 21.33 53.36 L 21.75 51.65 L 22.74 51.14 L 23.04 51.74 L 22.69 52.67 L 24.19 52.37 L 24.55 52.97 L 24.94 52.16 L 25.19 52.60 L 25.54 55.26 L 26.01 55.73 L 25.39 56.13 L 25.92 56.06 L 25.58 56.86 L 26.09 56.73 L 25.73 57.28 L 26.72 57.56 L 26.58 58.13 L 24.49 59.15 L 23.20 59.18 L 21.86 61.06 L 21.16 60.73 L 20.04 61.07 L 19.57 60.26 L 17.13 60.53 L 16.88 61.31 L 17.38 62.13 L 16.32 62.41 L 15.78 61.79 L 14.61 61.88 L 13.57 60.89 L 13.92 60.40 L 13.22 59.59 L 11.36 58.92 L 10.47 59.17 L 10.46 60.39 L 10.24 59.95 L 10.07 60.41 L 8.70 60.12 L 8.46 60.75 L 8.60 60.17 L 7.68 60.57 L 7.95 59.93 L 7.44 60.65 L 6.68 60.05 L 7.47 58.63 L 6.76 57.82 L 8.13 58.04 L 8.24 57.42 L 8.69 57.76 L 7.69 56.63 L 6.95 57.33 L 6.51 56.46 L 7.07 56.78 L 8.67 55.84 L 8.31 55.29 L 9.14 54.32 L 8.89 53.36 L 8.07 53.18 L 8.32 52.31 Z" stroke="#4caf50" stroke-width="1" fill="#2a4a2e" />
  <path class="region" d="M 29.44 54.32 L 29.44 54.32 Z" stroke="#4caf50" stroke-width="1" fill="#2a4a2e" />
  <path class="region" d="M 34.68 47.10 L 34.75 46.42 L 35.83 46.29 L 35.98 45.36 L 36.56 45.46 L 37.62 44.30 L 37.02 43.89 L 37.59 43.24 L 38.30 42.92 L 38.78 43.40 L 39.17 42.31 L 39.53 42.72 L 39.81 42.11 L 40.60 41.87 L 40.57 42.51 L 41.02 42.74 L 41.56 42.23 L 41.48 42.71 L 42.47 41.77 L 41.90 41.32 L 42.94 40.87 L 43.35 41.65 L 43.69 41.39 L 43.66 42.39 L 44.28 42.99 L 44.02 43.41 L 44.70 43.70 L 45.06 43.44 L 44.71 42.96 L 45.30 43.26 L 45.07 44.26 L 45.79 44.56 L 46.01 45.26 L 47.12 45.67 L 48.48 45.11 L 47.45 45.91 L 47.52 46.45 L 47.69 46.74 L 48.91 46.29 L 49.07 47.02 L 49.80 46.23 L 50.67 46.89 L 51.03 45.40 L 51.61 46.00 L 52.12 45.89 L 51.93 45.51 L 53.21 46.22 L 53.02 45.14 L 53.58 45.52 L 53.73 44.90 L 52.34 44.28 L 53.27 43.08 L 54.05 42.83 L 53.96 41.98 L 54.80 42.08 L 53.99 43.96 L 54.50 45.12 L 54.89 44.89 L 55.65 45.62 L 55.71 44.82 L 55.21 44.27 L 56.65 44.26 L 56.64 45.11 L 55.11 46.68 L 55.29 47.09 L 57.32 46.65 L 59.69 48.27 L 57.00 52.12 L 55.02 52.53 L 56.79 54.70 L 57.19 54.46 L 57.08 56.04 L 56.26 57.13 L 56.13 58.27 L 56.69 61.03 L 56.11 61.68 L 55.50 60.62 L 54.73 61.00 L 54.88 60.54 L 54.22 59.88 L 55.07 59.56 L 54.67 58.79 L 54.09 59.44 L 54.06 59.05 L 52.52 58.91 L 51.91 57.89 L 51.62 58.47 L 51.32 58.10 L 50.42 58.53 L 50.41 59.01 L 50.29 58.32 L 49.58 58.36 L 49.69 57.42 L 48.39 57.19 L 47.97 56.53 L 47.28 57.00 L 47.32 56.32 L 46.44 56.44 L 45.63 57.28 L 45.36 58.87 L 44.42 58.37 L 43.45 58.97 L 42.83 57.66 L 42.38 58.05 L 42.04 57.58 L 39.26 57.03 L 39.15 55.78 L 38.16 54.45 L 37.26 55.20 L 36.35 55.11 L 36.30 56.42 L 34.47 56.33 L 32.94 55.16 L 32.82 55.56 L 32.12 55.48 L 32.12 56.09 L 31.63 56.05 L 31.69 55.38 L 31.24 55.30 L 30.71 56.64 L 29.93 56.54 L 29.71 57.04 L 29.70 55.49 L 29.20 55.61 L 29.96 54.10 L 31.39 54.71 L 31.40 53.97 L 31.73 54.81 L 31.54 53.63 L 32.46 53.70 L 32.73 53.04 L 32.30 53.12 L 32.20 52.61 L 32.90 52.72 L 33.12 52.25 L 32.35 50.85 L 32.28 51.30 L 31.87 50.97 L 31.25 51.61 L 31.20 50.67 L 31.79 50.73 L 32.68 49.38 L 33.28 49.34 L 32.91 48.51 L 34.68 47.10 Z" stroke="#4caf50" stroke-width="1" fill="#2a4a2e" />
  <path class="region" d="M 31.46 50.28 L 31.46 50.28 Z" stroke="#4caf50" stroke-width="1" fill="#2a4a2e" />
  <path class="region" d="M 50.84 45.67 L 50.84 45.67 Z" stroke="#4caf50" stroke-width="1" fill="#2a4a2e" />
  <path class="region" d="M 39.62 42.23 L 39.62 42.23 Z" stroke="#4caf50" stroke-width="1" fill="#2a4a2e" />
  <path class="region" d="M 57.70 41.30 L 58.75 40.98 L 57.70 41.30 Z" stroke="#4caf50" stroke-width="1" fill="#2a4a2e" />
  <path class="region" d="M 57.11 27.17 L 57.54 28.25 L 57.15 28.86 L 58.62 30.96 L 58.74 32.93 L 58.34 33.39 L 58.66 33.59 L 58.12 34.04 L 59.29 34.76 L 58.71 35.66 L 59.49 35.95 L 59.44 37.42 L 60.06 38.01 L 58.91 38.47 L 58.46 40.20 L 57.50 39.77 L 57.93 40.82 L 57.70 41.46 L 58.70 41.14 L 58.54 41.57 L 59.31 42.39 L 59.77 42.27 L 60.09 43.99 L 59.27 44.48 L 58.55 45.96 L 57.83 45.70 L 57.16 46.71 L 55.42 47.18 L 55.11 46.68 L 56.16 45.95 L 56.65 44.26 L 55.21 44.27 L 55.71 44.82 L 55.65 45.62 L 54.89 44.89 L 54.50 45.12 L 53.99 43.96 L 54.80 42.08 L 53.96 41.98 L 54.05 42.83 L 53.27 43.08 L 52.34 44.28 L 53.73 44.90 L 53.58 45.52 L 53.02 45.14 L 53.21 46.22 L 51.93 45.51 L 52.12 45.89 L 51.61 46.00 L 51.03 45.40 L 50.67 46.89 L 49.80 46.23 L 49.07 47.02 L 48.91 46.29 L 47.69 46.74 L 47.45 45.91 L 48.48 45.11 L 47.65 45.16 L 47.88 44.56 L 47.29 44.62 L 47.49 43.94 L 46.34 42.19 L 46.58 40.87 L 47.47 41.01 L 48.08 39.34 L 46.76 38.10 L 46.40 36.57 L 46.59 35.05 L 48.32 34.91 L 48.48 34.37 L 49.32 34.07 L 49.81 32.56 L 49.27 31.97 L 49.70 30.76 L 49.29 30.63 L 49.16 29.64 L 48.74 29.63 L 49.15 27.99 L 50.69 27.00 L 53.36 27.73 L 53.55 26.64 L 54.36 26.54 L 54.84 27.64 L 57.11 27.17 Z" stroke="#4caf50" stroke-width="1" fill="#2a4a2e" />
  <path class="region" d="M 32.80 53.44 L 33.09 53.18 L 32.80 53.44 Z" stroke="#4caf50" stroke-width="1" fill="#2a4a2e" />
  <path class="region" d="M 29.34 55.65 L 29.70 55.49 L 29.82 55.96 L 29.34 55.65 Z" stroke="#4caf50" stroke-width="1" fill="#2a4a2e" />
  <path class="region" d="M 31.78 55.08 L 31.78 55.08 Z" stroke="#4caf50" stroke-width="1" fill="#2a4a2e" />
  <path class="region" d="M 31.76 54.04 L 31.76 54.04 Z" stroke="#4caf50" stroke-width="1" fill="#2a4a2e" />
  <path class="region" d="M 25.35 44.87 L 26.38 44.20 L 27.38 44.52 L 27.86 43.72 L 30.61 43.01 L 30.67 44.31 L 32.57 44.67 L 32.94 45.84 L 34.68 47.10 L 32.91 48.51 L 33.28 49.34 L 32.68 49.38 L 31.79 50.73 L 31.20 50.67 L 31.25 51.61 L 31.87 50.97 L 32.28 51.30 L 32.35 50.85 L 33.12 52.25 L 32.90 52.72 L 32.20 52.61 L 32.30 53.12 L 32.73 53.04 L 32.46 53.70 L 31.54 53.63 L 31.73 54.81 L 31.40 53.97 L 31.39 54.71 L 29.96 54.10 L 29.11 55.79 L 28.23 55.33 L 27.28 55.83 L 25.52 54.57 L 25.61 53.83 L 24.94 52.97 L 25.19 52.60 L 24.73 52.26 L 24.55 52.97 L 24.06 51.47 L 25.90 49.31 L 25.14 48.62 L 24.81 48.81 L 23.98 47.56 L 25.19 45.98 L 24.86 45.47 L 25.35 44.87 Z" stroke="#4caf50" stroke-width="1" fill="#2a4a2e" />
  <path class="region" d="M 76.64 1.17 L 77.19 3.03 L 76.61 4.29 L 77.27 6.48 L 77.68 6.66 L 77.73 9.01 L 76.94 11.36 L 76.67 14.75 L 76.08 14.62 L 75.35 16.53 L 74.87 16.44 L 74.59 18.37 L 75.24 18.54 L 75.96 19.76 L 78.05 20.48 L 77.99 23.38 L 79.29 24.10 L 79.59 25.50 L 78.95 26.66 L 78.51 27.30 L 77.65 27.22 L 76.47 29.19 L 77.18 30.58 L 77.73 30.64 L 77.75 31.50 L 76.53 32.89 L 76.17 32.06 L 74.97 32.00 L 74.38 33.14 L 74.35 34.98 L 74.83 36.22 L 75.22 36.25 L 75.05 36.98 L 74.24 37.00 L 73.47 38.19 L 72.23 37.94 L 71.76 38.52 L 72.15 39.87 L 72.67 40.05 L 72.32 42.29 L 72.75 42.60 L 71.90 43.40 L 71.98 44.02 L 70.66 44.57 L 69.37 43.49 L 68.96 42.89 L 69.21 42.53 L 68.51 42.46 L 68.05 43.25 L 67.19 43.41 L 66.40 42.18 L 64.25 43.37 L 63.48 42.98 L 63.27 43.49 L 62.39 43.30 L 60.79 41.84 L 60.29 43.31 L 59.77 42.27 L 59.42 42.48 L 58.54 41.57 L 58.70 41.14 L 57.70 41.46 L 57.93 40.82 L 57.47 39.90 L 58.46 40.20 L 58.91 38.47 L 60.06 38.01 L 59.44 37.42 L 59.49 35.95 L 58.71 35.66 L 59.29 34.76 L 58.12 34.04 L 58.66 33.59 L 58.34 33.39 L 58.74 32.93 L 58.62 30.96 L 57.15 28.86 L 57.54 28.25 L 56.75 26.05 L 57.62 24.71 L 56.88 23.26 L 57.44 22.31 L 56.73 21.60 L 56.73 22.09 L 55.40 21.85 L 54.78 20.56 L 55.57 17.61 L 56.14 17.72 L 56.26 17.29 L 56.24 14.62 L 55.44 13.61 L 55.21 14.14 L 54.08 14.19 L 51.20 13.63 L 51.31 12.01 L 50.46 11.81 L 50.57 11.22 L 49.14 10.92 L 49.61 8.60 L 51.34 9.00 L 51.60 7.87 L 52.99 8.15 L 53.22 6.97 L 55.23 7.39 L 55.03 8.55 L 55.98 8.75 L 56.80 8.87 L 56.95 7.73 L 61.07 8.53 L 62.06 6.28 L 63.77 6.62 L 64.01 5.41 L 65.73 5.73 L 65.99 3.78 L 66.69 3.92 L 66.95 3.09 L 68.54 3.36 L 74.94 2.65 L 76.64 1.17 Z" stroke="#4caf50" stroke-width="1" fill="#2a4a2e" />
  <path class="region" d="M 31.68 8.24 L 32.25 6.56 L 34.82 7.11 L 35.02 8.18 L 36.68 8.60 L 37.10 10.82 L 36.83 11.42 L 37.32 11.82 L 36.93 11.98 L 37.87 12.37 L 36.71 13.55 L 36.64 17.30 L 38.85 17.75 L 38.55 19.12 L 38.99 18.95 L 39.74 19.30 L 39.71 19.73 L 40.57 19.89 L 40.34 21.24 L 41.49 21.33 L 41.76 17.91 L 42.63 17.74 L 42.29 16.98 L 43.35 17.23 L 43.88 16.55 L 45.53 16.40 L 46.87 14.99 L 47.96 16.03 L 50.25 13.01 L 51.69 13.96 L 53.49 14.18 L 55.21 14.14 L 55.44 13.61 L 56.18 14.43 L 56.26 17.29 L 56.14 17.72 L 55.57 17.61 L 54.75 20.28 L 55.40 21.85 L 56.73 22.09 L 56.73 21.60 L 57.44 22.31 L 56.88 23.26 L 57.62 24.71 L 56.88 25.37 L 57.11 27.17 L 54.84 27.64 L 54.36 26.54 L 53.55 26.64 L 53.36 27.73 L 50.69 27.00 L 49.15 27.99 L 48.74 29.63 L 49.16 29.64 L 49.29 30.63 L 49.70 30.76 L 49.27 31.97 L 49.81 32.56 L 49.32 34.07 L 48.48 34.37 L 48.32 34.91 L 46.59 35.05 L 46.40 36.57 L 46.76 38.10 L 48.08 39.34 L 47.47 41.01 L 46.58 40.87 L 46.34 42.19 L 47.49 43.94 L 47.29 44.62 L 47.88 44.56 L 47.12 45.67 L 46.01 45.26 L 45.79 44.56 L 45.25 44.61 L 45.06 43.05 L 44.71 42.96 L 45.06 43.44 L 44.70 43.70 L 44.02 43.41 L 44.28 42.99 L 43.90 42.95 L 43.69 41.39 L 43.35 41.65 L 43.10 40.88 L 41.98 41.34 L 42.11 39.95 L 41.78 39.35 L 40.58 39.14 L 40.48 37.86 L 39.21 38.21 L 38.62 37.92 L 38.39 35.59 L 37.71 35.97 L 37.40 37.55 L 36.92 36.89 L 35.82 36.79 L 35.22 37.23 L 34.88 36.78 L 34.05 37.48 L 34.31 37.93 L 33.25 38.30 L 32.50 37.62 L 31.36 39.00 L 31.06 38.74 L 30.31 39.27 L 29.68 39.10 L 29.68 38.31 L 28.07 38.08 L 28.86 35.97 L 28.22 34.98 L 28.84 34.23 L 28.60 33.64 L 29.68 33.98 L 30.83 33.49 L 31.57 33.90 L 32.28 31.29 L 32.92 31.10 L 31.55 30.11 L 27.61 29.83 L 27.22 29.24 L 27.67 26.98 L 28.41 26.85 L 28.84 25.42 L 30.28 25.30 L 30.72 24.09 L 31.50 24.08 L 31.49 23.07 L 32.88 23.18 L 32.36 21.28 L 31.92 21.44 L 31.34 20.88 L 31.56 19.73 L 30.80 19.55 L 31.41 16.64 L 30.53 16.47 L 31.16 13.74 L 30.11 14.32 L 28.56 13.66 L 28.30 12.72 L 30.19 12.84 L 30.76 10.72 L 31.39 10.53 L 31.18 9.64 L 31.68 8.24 Z" stroke="#4caf50" stroke-width="1" fill="#2a4a2e" />
  <path class="region" d="M 5.83 49.78 L 6.74 48.02 L 7.79 47.43 L 7.51 46.27 L 7.91 45.60 L 9.11 44.94 L 9.87 43.74 L 10.66 43.75 L 10.62 42.85 L 11.86 42.58 L 11.68 42.02 L 11.08 42.07 L 11.26 41.01 L 10.70 40.18 L 11.92 40.03 L 11.64 39.64 L 12.20 38.79 L 11.72 38.28 L 12.14 37.43 L 13.37 37.05 L 13.92 37.57 L 13.38 34.82 L 15.33 31.77 L 16.73 33.29 L 18.91 32.68 L 19.99 31.46 L 20.68 31.45 L 21.27 30.20 L 21.10 29.16 L 21.95 28.65 L 23.90 29.32 L 24.24 30.20 L 25.26 29.28 L 27.28 29.36 L 27.61 29.83 L 31.07 30.00 L 32.78 30.75 L 32.91 31.17 L 32.04 31.80 L 31.57 33.90 L 30.83 33.49 L 29.68 33.98 L 28.60 33.64 L 28.84 34.23 L 28.22 34.98 L 28.86 35.97 L 28.38 36.40 L 28.34 37.89 L 24.87 38.44 L 24.44 39.59 L 24.77 40.05 L 23.37 40.56 L 23.80 41.83 L 24.68 41.75 L 24.16 43.02 L 24.50 43.79 L 25.06 43.78 L 24.83 44.50 L 25.35 44.87 L 24.86 45.47 L 25.19 45.98 L 23.98 47.56 L 25.85 49.58 L 25.06 49.94 L 23.78 52.69 L 22.69 52.67 L 23.04 51.74 L 22.74 51.14 L 21.75 51.65 L 21.33 53.36 L 20.47 53.34 L 20.20 54.29 L 19.90 53.88 L 19.52 54.29 L 19.60 56.42 L 18.19 55.87 L 17.35 56.16 L 17.48 55.41 L 17.17 55.78 L 15.76 55.02 L 15.23 54.55 L 15.42 53.91 L 14.66 53.79 L 14.88 53.29 L 13.74 52.96 L 12.54 51.84 L 11.54 52.17 L 11.07 53.06 L 9.77 53.05 L 9.54 52.52 L 9.03 52.74 L 8.59 52.24 L 8.25 52.54 L 8.70 50.93 L 6.83 50.91 L 6.69 49.94 L 6.05 50.17 L 5.83 49.78 Z" stroke="#4caf50" stroke-width="1" fill="#2a4a2e" />
  <path class="region" d="M 44.20 78.61 L 47.16 76.38 L 47.50 75.17 L 47.08 74.10 L 47.91 73.62 L 47.56 72.08 L 47.80 71.71 L 48.71 71.91 L 48.69 70.18 L 49.25 70.27 L 49.60 69.45 L 50.25 69.50 L 50.23 68.53 L 50.74 68.55 L 50.30 68.24 L 50.96 66.30 L 50.44 64.94 L 50.85 64.95 L 52.18 61.11 L 51.37 60.54 L 51.47 59.39 L 52.67 58.71 L 54.06 59.05 L 54.09 59.44 L 54.67 58.79 L 55.07 59.56 L 54.22 59.88 L 54.88 60.54 L 54.73 61.00 L 55.50 60.62 L 56.11 61.68 L 56.74 61.05 L 57.38 63.35 L 58.32 63.86 L 59.75 66.09 L 61.55 66.29 L 61.90 67.34 L 62.84 66.85 L 63.31 67.33 L 64.41 70.33 L 65.61 70.18 L 65.51 71.29 L 64.80 71.03 L 65.13 71.71 L 65.51 71.35 L 65.87 72.03 L 66.26 71.86 L 66.35 73.53 L 67.74 73.63 L 67.87 72.23 L 68.51 72.16 L 68.60 71.40 L 69.70 72.12 L 70.40 71.63 L 70.12 72.47 L 70.30 73.05 L 70.77 72.78 L 70.69 73.97 L 69.60 75.23 L 70.28 75.30 L 70.79 74.63 L 70.51 75.04 L 71.98 75.71 L 71.79 76.50 L 72.19 76.79 L 71.66 77.53 L 72.43 77.97 L 72.30 79.30 L 73.09 79.13 L 72.63 77.92 L 74.66 79.26 L 75.40 78.03 L 76.47 77.77 L 76.53 76.85 L 78.70 77.26 L 79.01 77.80 L 79.70 77.27 L 80.90 77.21 L 81.35 75.11 L 80.83 74.40 L 80.96 73.14 L 82.06 73.45 L 82.28 73.13 L 81.69 72.62 L 81.73 71.91 L 82.40 72.02 L 83.27 73.07 L 83.50 71.50 L 84.25 71.36 L 84.73 71.97 L 86.14 71.18 L 87.77 71.61 L 87.95 72.68 L 86.91 74.50 L 87.79 75.70 L 88.24 75.71 L 88.16 75.38 L 89.94 75.99 L 89.30 76.97 L 90.23 77.39 L 92.07 77.17 L 92.34 78.11 L 94.93 78.36 L 96.00 79.42 L 95.44 79.69 L 95.32 83.01 L 92.43 84.56 L 90.64 84.75 L 90.09 84.76 L 89.35 83.63 L 88.54 83.56 L 88.45 84.87 L 87.73 86.03 L 86.28 86.49 L 86.04 85.85 L 86.52 85.86 L 86.03 85.40 L 83.10 85.25 L 82.58 84.42 L 81.99 84.53 L 81.65 82.91 L 80.50 82.64 L 80.14 81.90 L 79.49 82.82 L 79.05 82.39 L 78.43 82.70 L 77.53 82.40 L 77.57 84.03 L 76.65 84.03 L 76.42 84.48 L 75.55 84.05 L 74.73 82.81 L 73.86 83.29 L 72.48 83.25 L 72.58 84.04 L 71.59 83.25 L 70.99 84.69 L 70.07 84.49 L 69.95 85.89 L 67.95 87.59 L 64.71 85.70 L 64.81 84.92 L 63.89 84.96 L 63.07 84.04 L 62.44 84.14 L 62.18 84.97 L 62.97 85.22 L 63.17 87.25 L 62.15 87.94 L 61.66 87.33 L 62.17 85.53 L 61.02 85.19 L 59.77 83.30 L 57.91 82.67 L 57.73 81.51 L 56.40 80.62 L 55.63 80.44 L 54.56 81.03 L 53.62 80.60 L 52.68 81.10 L 51.71 78.66 L 50.43 79.55 L 49.36 79.43 L 48.92 80.14 L 49.12 80.79 L 48.37 81.16 L 48.13 80.38 L 47.32 80.93 L 46.65 80.80 L 46.43 80.23 L 47.09 80.23 L 47.09 79.65 L 46.50 79.28 L 44.78 79.28 L 44.20 78.61 Z" stroke="#4caf50" stroke-width="1" fill="#2a4a2e" />
  <path class="region" d="M 5.94 59.91 L 6.91 59.65 L 6.68 60.05 L 7.72 60.70 L 7.47 60.32 L 7.95 59.93 L 7.68 60.57 L 8.60 60.17 L 8.46 60.75 L 8.70 60.12 L 10.07 60.41 L 10.24 59.95 L 10.46 60.39 L 10.47 59.17 L 12.32 59.12 L 13.62 59.98 L 13.94 60.54 L 13.57 60.89 L 14.06 61.45 L 14.61 61.88 L 15.78 61.79 L 16.32 62.41 L 17.29 62.27 L 16.86 60.96 L 18.03 60.16 L 19.57 60.26 L 20.30 61.11 L 21.16 60.73 L 21.86 61.06 L 23.03 60.15 L 24.14 61.34 L 23.85 61.91 L 25.15 63.49 L 25.25 64.68 L 25.93 64.59 L 26.94 65.59 L 26.88 70.24 L 25.77 71.30 L 25.07 70.36 L 23.71 70.70 L 22.92 71.72 L 22.30 71.79 L 22.02 72.65 L 20.84 72.20 L 20.62 71.67 L 19.56 72.50 L 18.02 72.25 L 17.79 72.95 L 17.06 72.49 L 16.95 71.77 L 15.54 70.96 L 14.36 72.80 L 11.84 71.32 L 10.02 71.70 L 9.25 70.84 L 8.53 71.38 L 8.57 70.49 L 9.04 70.36 L 8.80 69.95 L 9.74 69.48 L 8.70 67.06 L 7.03 65.35 L 6.65 63.62 L 5.89 63.37 L 6.24 62.68 L 5.48 62.08 L 5.94 59.91 Z" stroke="#4caf50" stroke-width="1" fill="#2a4a2e" />
  <path class="region" d="M 41.59 57.53 L 42.38 58.05 L 42.83 57.66 L 43.45 58.97 L 44.42 58.37 L 45.36 58.87 L 45.63 57.28 L 46.44 56.44 L 47.32 56.32 L 47.28 57.00 L 47.97 56.53 L 48.39 57.19 L 49.69 57.42 L 49.58 58.36 L 50.29 58.32 L 50.41 59.01 L 50.42 58.53 L 51.32 58.10 L 51.62 58.47 L 51.91 57.89 L 52.52 58.91 L 51.47 59.39 L 51.37 60.54 L 52.18 61.11 L 50.35 65.39 L 50.96 66.30 L 50.31 68.06 L 50.74 68.55 L 50.23 68.53 L 50.25 69.50 L 49.60 69.45 L 49.25 70.27 L 48.69 70.18 L 48.71 71.91 L 47.80 71.71 L 47.56 72.08 L 47.91 73.62 L 47.08 74.10 L 47.50 75.17 L 47.16 76.38 L 44.20 78.61 L 43.91 77.38 L 42.28 76.97 L 42.29 76.49 L 41.37 76.73 L 41.71 75.82 L 40.88 75.72 L 40.87 75.33 L 39.74 75.43 L 39.46 74.65 L 38.95 74.83 L 38.73 73.68 L 38.15 74.24 L 38.10 73.64 L 37.41 73.71 L 37.74 73.11 L 36.92 72.81 L 35.94 72.83 L 35.55 73.46 L 34.75 71.64 L 33.01 71.21 L 34.37 69.65 L 33.35 69.12 L 33.24 68.26 L 32.75 68.72 L 32.31 68.34 L 32.75 67.70 L 32.30 67.36 L 32.55 66.98 L 31.61 66.13 L 32.09 65.09 L 33.59 65.15 L 34.06 64.54 L 33.57 63.78 L 34.40 63.71 L 34.23 62.91 L 35.03 63.44 L 36.49 63.50 L 36.55 62.23 L 39.24 62.87 L 40.23 62.23 L 40.37 62.68 L 41.19 62.80 L 40.74 62.13 L 40.97 61.57 L 41.89 61.25 L 42.20 59.77 L 41.59 57.53 Z" stroke="#4caf50" stroke-width="1" fill="#2a4a2e" />
  <path class="region" d="M 8.53 71.38 L 9.25 70.84 L 10.02 71.70 L 11.84 71.32 L 14.36 72.80 L 15.54 70.96 L 16.95 71.77 L 17.06 72.49 L 17.79 72.95 L 18.02 72.25 L 19.56 72.50 L 20.62 71.67 L 20.84 72.20 L 22.02 72.65 L 23.11 71.11 L 25.07 70.36 L 25.77 71.30 L 26.87 71.17 L 27.19 71.98 L 27.69 71.56 L 27.86 71.95 L 28.96 71.90 L 29.23 71.47 L 30.25 71.92 L 30.74 70.68 L 31.26 71.40 L 31.87 71.20 L 32.03 70.78 L 31.58 70.66 L 32.04 70.31 L 33.60 70.24 L 33.01 71.21 L 34.75 71.64 L 35.55 73.46 L 35.94 72.83 L 37.32 72.85 L 37.74 73.11 L 37.41 73.71 L 38.10 73.64 L 38.15 74.24 L 38.73 73.68 L 38.95 74.83 L 39.46 74.65 L 39.74 75.43 L 40.87 75.33 L 40.88 75.72 L 41.71 75.82 L 41.37 76.73 L 42.29 76.49 L 42.28 76.97 L 43.91 77.38 L 44.53 79.58 L 43.77 80.13 L 44.00 79.71 L 43.34 79.59 L 43.13 80.86 L 42.29 81.23 L 42.26 81.90 L 41.68 82.31 L 40.42 82.63 L 39.40 83.59 L 37.52 83.66 L 37.25 84.44 L 37.60 85.52 L 36.15 85.96 L 34.68 87.37 L 33.44 87.06 L 33.82 87.25 L 34.43 90.65 L 34.17 91.16 L 34.83 91.79 L 32.51 93.37 L 31.48 92.80 L 30.93 91.01 L 28.84 88.15 L 26.87 88.66 L 26.80 87.59 L 25.37 87.63 L 24.89 86.94 L 25.18 86.45 L 24.60 85.92 L 23.91 85.81 L 23.78 86.55 L 23.25 86.49 L 23.39 86.99 L 22.35 86.76 L 22.33 87.10 L 21.28 87.03 L 21.52 85.98 L 20.38 85.17 L 19.76 85.26 L 19.50 86.49 L 17.14 86.18 L 17.97 84.01 L 17.60 82.72 L 16.61 81.79 L 16.32 82.07 L 16.16 81.62 L 14.97 81.38 L 14.68 81.80 L 14.31 81.10 L 13.02 81.01 L 12.72 81.79 L 12.43 81.51 L 11.91 81.86 L 11.99 81.20 L 11.51 81.13 L 11.13 81.55 L 10.32 81.29 L 10.16 81.80 L 8.56 81.91 L 6.67 79.96 L 7.02 79.74 L 6.73 78.70 L 5.51 77.44 L 5.33 76.47 L 6.73 73.97 L 7.17 73.91 L 7.11 72.64 L 7.68 72.49 L 7.96 71.39 L 8.53 71.38 Z" stroke="#4caf50" stroke-width="1" fill="#2a4a2e" />
  <path class="region" d="M 25.67 54.70 L 27.28 55.83 L 28.23 55.33 L 29.53 55.71 L 29.71 57.04 L 29.93 56.54 L 30.71 56.64 L 31.24 55.30 L 31.69 55.38 L 31.63 56.05 L 32.12 56.09 L 32.12 55.48 L 32.82 55.56 L 32.94 55.16 L 34.47 56.33 L 36.30 56.42 L 36.35 55.11 L 37.26 55.20 L 38.16 54.45 L 39.15 55.78 L 39.26 57.03 L 41.59 57.53 L 42.20 59.16 L 42.08 60.90 L 40.74 62.13 L 41.19 62.80 L 40.37 62.68 L 40.23 62.23 L 39.24 62.87 L 36.55 62.23 L 36.49 63.50 L 35.03 63.44 L 34.23 62.91 L 34.40 63.71 L 33.57 63.78 L 34.06 64.54 L 33.59 65.15 L 32.09 65.09 L 31.59 65.91 L 32.55 66.98 L 32.30 67.36 L 32.75 67.70 L 32.31 68.34 L 32.75 68.72 L 33.24 68.26 L 33.35 69.12 L 34.38 69.73 L 33.03 70.47 L 32.04 70.31 L 31.58 70.66 L 32.03 70.78 L 31.87 71.20 L 31.26 71.40 L 30.74 70.68 L 30.25 71.92 L 29.23 71.47 L 28.96 71.90 L 27.86 71.95 L 27.69 71.56 L 27.19 71.98 L 26.87 71.17 L 26.03 71.31 L 26.15 70.66 L 26.88 70.24 L 26.94 65.59 L 24.98 64.28 L 25.15 63.49 L 24.36 62.09 L 23.89 62.00 L 23.87 60.93 L 23.03 60.15 L 22.33 60.41 L 23.20 59.18 L 24.49 59.15 L 26.58 58.13 L 26.72 57.56 L 25.73 57.28 L 26.09 56.73 L 25.58 56.86 L 25.97 56.18 L 25.39 56.13 L 26.01 55.73 L 25.67 54.70 Z" stroke="#4caf50" stroke-width="1" fill="#2a4a2e" />
</svg>
